<svg xmlns="http://www.w3.org/2000/svg" width="24" height="24" fill="none" viewBox="0 0 24 24">
  <path fill="#4F46E5" fill-rule="evenodd" d="M14.234 1.756c-.569-2.341-3.9-2.341-4.468 0a2.299 2.299 0 0 1-3.43 1.421c-2.058-1.254-4.413 1.101-3.159 3.16a2.299 2.299 0 0 1-1.42 3.43c-2.342.568-2.342 3.898 0 4.467a2.299 2.299 0 0 1 1.42 3.43c-1.254 2.058 1.101 4.413 3.16 3.159a2.299 2.299 0 0 1 3.43 1.42c.568 2.343 3.898 2.343 4.467 0a2.299 2.299 0 0 1 3.43-1.42c2.058 1.254 4.413-1.101 3.159-3.16a2.299 2.299 0 0 1 1.42-3.43c2.343-.568 2.343-3.898 0-4.467a2.299 2.299 0 0 1-1.42-3.43c1.254-2.058-1.101-4.413-3.16-3.159a2.299 2.299 0 0 1-3.43-1.42ZM12 16.5a4.5 4.5 0 1 0 0-9 4.5 4.5 0 0 0 0 9Z" clip-rule="evenodd"/>
</svg>
